<mxfile host="Electron" modified="2024-07-25T12:57:11.915Z" agent="Mozilla/5.0 (Macintosh; Intel Mac OS X 10_15_7) AppleWebKit/537.36 (KHTML, like Gecko) draw.io/24.6.4 Chrome/124.0.6367.207 Electron/30.0.6 Safari/537.36" etag="B_1kQF3Ogepokp3aRzEG" version="24.6.4" type="device">
  <diagram name="페이지-1" id="uMQJzB9k2dWxf3XCYxRZ">
    <mxGraphModel dx="887" dy="894" grid="1" gridSize="10" guides="1" tooltips="1" connect="1" arrows="1" fold="1" page="1" pageScale="1" pageWidth="827" pageHeight="1169" math="0" shadow="0">
      <root>
        <mxCell id="0" />
        <mxCell id="1" parent="0" />
        <mxCell id="HGN-ahiroi9T4cNAC74y-4" value="" style="ellipse;whiteSpace=wrap;html=1;aspect=fixed;verticalAlign=top;fontStyle=1;fontSize=13;fillColor=#ffe6cc;strokeColor=#d79b00;" vertex="1" parent="1">
          <mxGeometry x="195" y="250" width="430" height="430" as="geometry" />
        </mxCell>
        <mxCell id="HGN-ahiroi9T4cNAC74y-3" value="Controller" style="ellipse;whiteSpace=wrap;html=1;aspect=fixed;verticalAlign=top;fontStyle=1;fontSize=13;fillColor=#d5e8d4;strokeColor=#82b366;" vertex="1" parent="1">
          <mxGeometry x="260" y="310" width="300" height="300" as="geometry" />
        </mxCell>
        <mxCell id="HGN-ahiroi9T4cNAC74y-2" value="Usecase" style="ellipse;whiteSpace=wrap;html=1;aspect=fixed;verticalAlign=top;fontStyle=1;fontSize=13;fillColor=#dae8fc;strokeColor=#6c8ebf;" vertex="1" parent="1">
          <mxGeometry x="316.25" y="366.25" width="187.5" height="187.5" as="geometry" />
        </mxCell>
        <mxCell id="HGN-ahiroi9T4cNAC74y-1" value="Entity" style="ellipse;whiteSpace=wrap;html=1;aspect=fixed;verticalAlign=top;fontStyle=1;fontSize=13;fillColor=#f8cecc;strokeColor=#b85450;" vertex="1" parent="1">
          <mxGeometry x="370" y="420" width="80" height="80" as="geometry" />
        </mxCell>
        <mxCell id="HGN-ahiroi9T4cNAC74y-5" value="Gateway" style="text;html=1;align=center;verticalAlign=middle;whiteSpace=wrap;rounded=0;fontSize=13;fontStyle=1" vertex="1" parent="1">
          <mxGeometry x="290" y="521" width="60" height="30" as="geometry" />
        </mxCell>
        <mxCell id="HGN-ahiroi9T4cNAC74y-6" value="Presenter" style="text;html=1;align=center;verticalAlign=middle;whiteSpace=wrap;rounded=0;fontSize=13;fontStyle=1" vertex="1" parent="1">
          <mxGeometry x="470" y="523.75" width="60" height="30" as="geometry" />
        </mxCell>
        <mxCell id="HGN-ahiroi9T4cNAC74y-7" value="Web" style="text;html=1;align=center;verticalAlign=middle;whiteSpace=wrap;rounded=0;fontSize=13;fontStyle=1" vertex="1" parent="1">
          <mxGeometry x="520" y="330" width="60" height="30" as="geometry" />
        </mxCell>
        <mxCell id="HGN-ahiroi9T4cNAC74y-8" value="UI" style="text;html=1;align=center;verticalAlign=middle;whiteSpace=wrap;rounded=0;fontSize=13;fontStyle=1" vertex="1" parent="1">
          <mxGeometry x="514" y="573" width="60" height="30" as="geometry" />
        </mxCell>
        <mxCell id="HGN-ahiroi9T4cNAC74y-9" value="External&lt;div&gt;Interface&lt;/div&gt;" style="text;html=1;align=center;verticalAlign=middle;whiteSpace=wrap;rounded=0;fontSize=13;fontStyle=1" vertex="1" parent="1">
          <mxGeometry x="380" y="630" width="60" height="30" as="geometry" />
        </mxCell>
        <mxCell id="HGN-ahiroi9T4cNAC74y-10" value="DB" style="text;html=1;align=center;verticalAlign=middle;whiteSpace=wrap;rounded=0;fontSize=13;fontStyle=1" vertex="1" parent="1">
          <mxGeometry x="240" y="573" width="60" height="30" as="geometry" />
        </mxCell>
        <mxCell id="HGN-ahiroi9T4cNAC74y-11" value="Device" style="text;html=1;align=center;verticalAlign=middle;whiteSpace=wrap;rounded=0;fontSize=13;fontStyle=1" vertex="1" parent="1">
          <mxGeometry x="230" y="330" width="60" height="30" as="geometry" />
        </mxCell>
        <mxCell id="HGN-ahiroi9T4cNAC74y-20" style="edgeStyle=orthogonalEdgeStyle;rounded=0;orthogonalLoop=1;jettySize=auto;html=1;entryX=0;entryY=0.5;entryDx=0;entryDy=0;startArrow=block;startFill=1;endArrow=none;endFill=0;strokeColor=#FF3333;strokeWidth=2;" edge="1" parent="1" source="HGN-ahiroi9T4cNAC74y-13" target="HGN-ahiroi9T4cNAC74y-14">
          <mxGeometry relative="1" as="geometry" />
        </mxCell>
        <mxCell id="HGN-ahiroi9T4cNAC74y-13" value="" style="ellipse;whiteSpace=wrap;html=1;aspect=fixed;strokeColor=#FF3333;fillColor=#FF3333;" vertex="1" parent="1">
          <mxGeometry x="396" y="447" width="30" height="30" as="geometry" />
        </mxCell>
        <mxCell id="HGN-ahiroi9T4cNAC74y-14" value="" style="ellipse;whiteSpace=wrap;html=1;aspect=fixed;strokeColor=#FF3333;fillColor=#FF3333;" vertex="1" parent="1">
          <mxGeometry x="461" y="447" width="30" height="30" as="geometry" />
        </mxCell>
        <mxCell id="HGN-ahiroi9T4cNAC74y-15" value="" style="ellipse;whiteSpace=wrap;html=1;aspect=fixed;strokeColor=#FF3333;fillColor=#FF3333;" vertex="1" parent="1">
          <mxGeometry x="517" y="447" width="30" height="30" as="geometry" />
        </mxCell>
        <mxCell id="HGN-ahiroi9T4cNAC74y-17" style="edgeStyle=orthogonalEdgeStyle;rounded=0;orthogonalLoop=1;jettySize=auto;html=1;entryX=1;entryY=0.5;entryDx=0;entryDy=0;strokeColor=#FF3333;endArrow=block;endFill=1;strokeWidth=2;" edge="1" parent="1" source="HGN-ahiroi9T4cNAC74y-16" target="HGN-ahiroi9T4cNAC74y-15">
          <mxGeometry relative="1" as="geometry" />
        </mxCell>
        <mxCell id="HGN-ahiroi9T4cNAC74y-16" value="" style="ellipse;whiteSpace=wrap;html=1;aspect=fixed;strokeColor=#FF3333;fillColor=#FF3333;" vertex="1" parent="1">
          <mxGeometry x="581" y="447" width="30" height="30" as="geometry" />
        </mxCell>
        <mxCell id="HGN-ahiroi9T4cNAC74y-18" style="edgeStyle=orthogonalEdgeStyle;rounded=0;orthogonalLoop=1;jettySize=auto;html=1;entryX=1;entryY=0.5;entryDx=0;entryDy=0;strokeColor=#FF3333;endArrow=block;endFill=1;strokeWidth=2;" edge="1" parent="1">
          <mxGeometry relative="1" as="geometry">
            <mxPoint x="525" y="462" as="sourcePoint" />
            <mxPoint x="491" y="462" as="targetPoint" />
          </mxGeometry>
        </mxCell>
        <mxCell id="HGN-ahiroi9T4cNAC74y-25" style="rounded=0;orthogonalLoop=1;jettySize=auto;html=1;endArrow=open;endFill=0;fillColor=#f8cecc;strokeColor=#b85450;" edge="1" parent="1">
          <mxGeometry relative="1" as="geometry">
            <mxPoint x="139.2790697674418" y="270" as="sourcePoint" />
            <mxPoint x="390.30643884870165" y="446.9537191884292" as="targetPoint" />
          </mxGeometry>
        </mxCell>
        <mxCell id="HGN-ahiroi9T4cNAC74y-21" value="비즈니스 업무 규칙" style="text;html=1;align=center;verticalAlign=middle;whiteSpace=wrap;rounded=0;fillColor=#f8cecc;strokeColor=#b85450;" vertex="1" parent="1">
          <mxGeometry x="30" y="254" width="110" height="30" as="geometry" />
        </mxCell>
        <mxCell id="HGN-ahiroi9T4cNAC74y-26" style="rounded=0;orthogonalLoop=1;jettySize=auto;html=1;endArrow=open;endFill=0;fillColor=#dae8fc;strokeColor=#6c8ebf;" edge="1" parent="1">
          <mxGeometry relative="1" as="geometry">
            <mxPoint x="130" y="320" as="sourcePoint" />
            <mxPoint x="351" y="471.9537191884292" as="targetPoint" />
          </mxGeometry>
        </mxCell>
        <mxCell id="HGN-ahiroi9T4cNAC74y-28" style="rounded=0;orthogonalLoop=1;jettySize=auto;html=1;endArrow=open;endFill=0;fillColor=#d5e8d4;strokeColor=#82b366;" edge="1" parent="1">
          <mxGeometry relative="1" as="geometry">
            <mxPoint x="130" y="380" as="sourcePoint" />
            <mxPoint x="305" y="499.9537191884292" as="targetPoint" />
          </mxGeometry>
        </mxCell>
        <mxCell id="HGN-ahiroi9T4cNAC74y-29" style="rounded=0;orthogonalLoop=1;jettySize=auto;html=1;endArrow=open;endFill=0;fillColor=#ffe6cc;strokeColor=#d79b00;" edge="1" parent="1">
          <mxGeometry relative="1" as="geometry">
            <mxPoint x="130" y="430" as="sourcePoint" />
            <mxPoint x="256" y="514.9537191884292" as="targetPoint" />
          </mxGeometry>
        </mxCell>
        <mxCell id="HGN-ahiroi9T4cNAC74y-22" value="애플리케이션 업무 규칙" style="text;html=1;align=center;verticalAlign=middle;whiteSpace=wrap;rounded=0;fillColor=#dae8fc;strokeColor=#6c8ebf;" vertex="1" parent="1">
          <mxGeometry x="10" y="310" width="130" height="30" as="geometry" />
        </mxCell>
        <mxCell id="HGN-ahiroi9T4cNAC74y-23" value="인터페이스 어댑터" style="text;html=1;align=center;verticalAlign=middle;whiteSpace=wrap;rounded=0;fillColor=#d5e8d4;strokeColor=#82b366;" vertex="1" parent="1">
          <mxGeometry x="10" y="366.25" width="130" height="30" as="geometry" />
        </mxCell>
        <mxCell id="HGN-ahiroi9T4cNAC74y-24" value="프레임워크 &amp;amp; 디바이스" style="text;html=1;align=center;verticalAlign=middle;whiteSpace=wrap;rounded=0;fillColor=#ffe6cc;strokeColor=#d79b00;" vertex="1" parent="1">
          <mxGeometry x="10" y="420" width="130" height="30" as="geometry" />
        </mxCell>
      </root>
    </mxGraphModel>
  </diagram>
</mxfile>
